<svg width="15" height="51" xmlns="http://www.w3.org/2000/svg" preserveAspectRatio="xMidYMid meet">

 <g>
  <title>background</title>
  <rect fill="none" id="canvas_background" height="402" width="582" y="-1" x="-1"/>
 </g>
 <g>
  <title>Layer 1</title>
  <path fill="#ffffff" stroke="#ffffff" id="svg_1" d="m627,672c0,8.667 -3.333,16.333 -10,23l-393,393l393,393c6.667,6.667 10,14.333 10,23s-3.333,16.333 -10,23l-50,50c-6.667,6.667 -14.333,10 -23,10s-16.333,-3.333 -23,-10l-466,-466c-6.667,-6.667 -10,-14.333 -10,-23s3.333,-16.333 10,-23l466,-466c6.667,-6.667 14.333,-10 23,-10s16.333,3.333 23,10l50,50c6.667,6.667 10,14.333 10,23z"/>
 </g>
</svg>
